<?xml version="1.0" encoding="UTF-8"?>
<svg xmlns="http://www.w3.org/2000/svg" xmlns:xlink="http://www.w3.org/1999/xlink" width="454.979mm" height="242.147mm" viewBox="87.544609 -412.134003 454.978882 242.146530">
    <path transform="matrix(0.571779,0.762113,0.576904,-0.755343,139.867874,-245.09845)" style="stroke:#000000;stroke-width:0.05mm;fill:none" d="M49.497971,-49.497971L-35.621517,-47.278015C-45.751713,-46.846832,-49.04604,-45.9375,-48.860012,-34.157135L-49.497971,49.497971L34.498226,49.23999C48.261471,49.094879,46.731533,46.328217,47.736721,36.11911L49.497971,-49.497971z"/>
    <path transform="matrix(1,0,0,-1,125.457916,-1.339417)" style="stroke:#000000;stroke-width:0.05mm;fill:none" d="M236.031998,281.824005C244.260681,281.966614,252.407471,283.483459,260.135986,286.312012C266.395386,288.587036,272.264862,291.817261,277.536011,295.888C279.730194,297.582092,281.792084,299.440765,283.70401,301.447998C283.208405,302.177002,282.69635,302.894348,282.167999,303.600006L242.272003,357.112C238.98172,361.515442,232.756332,362.440704,228.328003,359.18399C227.543533,358.6091,226.847961,357.921753,226.264008,357.144012L186.391998,304.135986C185.810165,303.402435,185.252563,302.650085,184.720001,301.880005C188.678787,297.680908,193.234299,294.087708,198.240005,291.216003C202.871719,288.541504,207.801453,286.420319,212.927994,284.895996C220.423309,282.679382,228.217957,281.642944,236.031998,281.824005z"/>
    <path transform="matrix(0.432261,0,0,-0.324308,99.927017,-259.678833)" style="stroke:#000000;stroke-width:0.05mm;fill:none" d="M310.223999,176.671997C318.665466,176.853592,326.600403,180.739136,331.920013,187.296005C337.301056,193.931366,339.258789,202.706787,337.208008,211C319.013763,266.555176,320.10791,258.312195,310.731384,282.384216C303.138855,264.508972,298.956909,256.380615,281.76001,211C279.542786,202.01181,282.033752,192.511856,288.376007,185.768005C294.021393,179.749451,301.975433,176.437912,310.223999,176.671997z"/>
    <path transform="matrix(0.432261,0,0,-0.471748,358.861481,-163.06929)" style="stroke:#000000;stroke-width:0.05mm;fill:none" d="M310.223999,176.671997C318.665466,176.853592,326.600403,180.739136,331.920013,187.296005C337.301056,193.931366,339.258789,202.706787,337.208008,211C303.193451,350.186523,331.671936,560.292175,302.959595,523.764771C295.899597,511.514709,313.765625,300.346863,281.76001,211C279.542786,202.01181,282.033752,192.511856,288.376007,185.768005C294.021393,179.749451,301.975433,176.437912,310.223999,176.671997z"/>
    <path transform="matrix(1,0,0,-1,258.819489,64.845703)" style="stroke:#000000;stroke-width:0.05mm;fill:none" d="M236.031998,281.824005C244.260681,281.966614,252.407471,283.483459,260.135986,286.312012C266.395386,288.587036,272.264862,291.817261,277.536011,295.888C279.730194,297.582092,281.792084,299.440765,283.70401,301.447998C283.208405,302.177002,282.69635,302.894348,282.167999,303.600006L242.272003,357.112C238.98172,361.515442,232.756332,362.440704,228.328003,359.18399C227.543533,358.6091,226.847961,357.921753,226.264008,357.144012L186.391998,304.135986C185.810165,303.402435,185.252563,302.650085,184.720001,301.880005C188.678787,297.680908,193.234299,294.087708,198.240005,291.216003C202.871719,288.541504,207.801453,286.420319,212.927994,284.895996C220.423309,282.679382,228.217957,281.642944,236.031998,281.824005z"/>
    <path transform="matrix(1,0,0,-1,0.296695,-7.081299)" style="stroke:#000000;stroke-width:0.05mm;fill:none" d="M236.031998,281.824005C244.260681,281.966614,252.407471,283.483459,260.135986,286.312012C266.395386,288.587036,272.264862,291.817261,277.536011,295.888C279.730194,297.582092,281.792084,299.440765,283.70401,301.447998C283.208405,302.177002,282.69635,302.894348,282.167999,303.600006L242.272003,357.112C238.98172,361.515442,232.756332,362.440704,228.328003,359.18399C227.543533,358.6091,226.847961,357.921753,226.264008,357.144012L186.391998,304.135986C185.810165,303.402435,185.252563,302.650085,184.720001,301.880005C188.678787,297.680908,193.234299,294.087708,198.240005,291.216003C202.871719,288.541504,207.801453,286.420319,212.927994,284.895996C220.423309,282.679382,228.217957,281.642944,236.031998,281.824005z"/>
    <path transform="matrix(0.629938,-0.368608,-0.515175,-0.386139,226.547516,-75.370316)" style="stroke:#000000;stroke-width:0.05mm;fill:none" d="M311,300L320,300L315,330L311,300z"/>
    <path transform="matrix(0.692369,-0.314474,-0.427614,-0.431372,170.426208,-73.890274)" style="stroke:#000000;stroke-width:0.05mm;fill:none" d="M311,300L320,300L315,330L311,300z"/>
    <path transform="matrix(0.781301,-0.188114,-0.227591,-0.499589,68.848625,-88.966507)" style="stroke:#000000;stroke-width:0.05mm;fill:none" d="M311,300L320,300L315,330L311,300z"/>
    <path transform="matrix(-0.781301,-0.188114,0.227591,-0.499589,400.856079,-88.749786)" style="stroke:#000000;stroke-width:0.05mm;fill:none" d="M311,300L320,300L315,330L311,300z"/>
    <path transform="matrix(-0.629938,-0.368608,0.515175,-0.386139,243.156677,-75.153595)" style="stroke:#000000;stroke-width:0.05mm;fill:none" d="M311,300L320,300L315,330L311,300z"/>
    <path transform="matrix(-0.692369,-0.314474,0.427614,-0.431372,299.278687,-73.673584)" style="stroke:#000000;stroke-width:0.05mm;fill:none" d="M311,300L320,300L315,330L311,300z"/>
</svg>
